# xmcd CD database file
#
# Track frame offsets:
#	150
#	15151
#	30150
#
# Disc length: 561 seconds
#
# Revision: 0
# Processed by: cddbd v1.5.1PL0 Copyright (c) Steve Scherf et al.
# Submitted via: CDex 1.51
#
DISCID=0c022f03
DTITLE=Securité solaire - Mets ton sombrero
DYEAR=2005
DGENRE=Salsa
TTITLE0=Mets ton Sombrero
TTITLE1=Mets ton sombrero (instrumental)
TTITLE2=Mets ton sombrero (radio edit)
EXTD=YEAR: 2005
EXTT0=
EXTT1=
EXTT2=
PLAYORDER=
